<svg width="128" height="128" viewBox="0 0 128 128" fill="none" xmlns="http://www.w3.org/2000/svg">
<rect width="128" height="128" rx="16" fill="#FFFEFC"/>
<path fill-rule="evenodd" clip-rule="evenodd" d="M76.3523 34.4711C72.5516 32.8794 68.3785 32 64 32C46.3269 32 32 46.3269 32 64C32 81.5996 46.208 95.8807 63.7796 95.9993C63.9309 96.0003 64.0822 96.0003 64.2336 95.9992C72.6977 95.9387 80.3805 92.5921 86.0697 87.1717C86.4514 86.8082 86.8245 86.4349 87.1885 86.0522C92.6487 80.3123 96 72.5475 96 64C96 60.8752 95.5521 57.8549 94.717 55H103.545C108.447 55 112.545 59.098 112.545 64C112.545 74.7112 110.56 85.1393 104.187 93.7484C97.8146 102.358 88.8456 108.693 78.6013 111.821C68.357 114.948 57.3789 114.704 47.284 111.123C37.1892 107.542 28.5111 100.814 22.5279 91.9296C16.5447 83.0453 13.5727 72.4743 14.0496 61.7738C14.5265 51.0732 18.4271 40.8086 25.177 32.4917C31.9268 24.1749 41.169 18.2455 51.5425 15.5768C61.9159 12.9081 72.8721 13.6411 82.7976 17.668C87.4035 19.5367 89.6224 24.7854 87.7538 29.3914C85.9285 33.8903 80.8783 36.1119 76.3523 34.4711Z" fill="#1C85E8"/>
<path d="M85.6162 64C85.6162 70.0751 80.6913 75 74.6162 75C68.5411 75 63.6162 70.0751 63.6162 64C63.6162 57.9249 68.5411 53 74.6162 53C80.6913 53 85.6162 57.9249 85.6162 64Z" fill="#1C85E8"/>
</svg>
