
    <svg
      width="138"
      height="138"
      viewBox="0 0 138 138"
      fill="none"
      xmlns="http://www.w3.org/2000/svg"
    >
      <circle cx="69" cy="69" r="66" stroke="#F06648" stroke-width="6" />
      <path
        fill-rule="evenodd"
        clip-rule="evenodd"
        d="M55.9418 103.246L45.178 112.121C44.6467 112.559 44.8644 113.42 45.5404 113.551C54.181 115.235 68.9796 118.048 85.8569 115.42C86.0557 115.389 86.2371 115.284 86.3635 115.128L99.1179 99.3365C99.5225 98.8355 99.2128 98.0854 98.5726 98.0158L91.2243 97.2172C90.8482 97.3772 90.4288 97.5359 89.9722 97.693C85.6623 105.169 79.3559 108.731 73.0758 109.293C66.8907 109.846 60.7782 107.482 56.7162 103.182C56.4574 103.204 56.1993 103.226 55.9418 103.246ZM72.9308 107.671C67.7023 108.139 62.535 106.337 58.8478 102.993C69.5958 101.99 81.0569 100.196 87.6135 98.409C83.6219 104.393 78.2243 107.198 72.9308 107.671ZM94.4299 91.5852C94.2738 92.5101 94.1157 93.3147 93.9557 93.9729C95.2337 93.4488 96.7115 92.7797 98.0408 92.0558C99.0166 91.5245 99.8868 90.9773 100.535 90.4507C101.218 89.8952 101.516 89.4713 101.579 89.2172C101.621 89.0516 101.687 88.4902 101.766 87.5013C101.842 86.5486 101.925 85.2729 102.012 83.7448C102.575 73.8917 103.318 53.7455 103.67 42.9316C103.795 39.0775 103.87 36.4319 103.87 35.849C103.87 35.594 103.725 35.2421 103.288 34.7957C102.861 34.3589 102.237 33.9205 101.495 33.5044C100.476 32.9327 99.3058 32.4431 98.2836 32.0804C98.3147 32.5428 98.3353 33.1082 98.347 33.7602C98.3783 35.5049 98.3469 37.9356 98.2642 40.8241C98.0985 46.6045 97.726 54.2556 97.2296 62.0017C96.7332 69.7472 96.1123 77.5974 95.4493 83.7744C95.1179 86.8615 94.7749 89.5413 94.4299 91.5852ZM109.007 77.7543C107.606 80.0081 105.856 81.7072 103.705 82.6202C104.247 72.6203 104.927 54.2456 105.273 43.7192C106.217 43.6571 107.033 43.6205 107.755 43.6472C108.653 43.6805 109.345 43.8111 109.906 44.0748C110.966 44.5726 111.823 45.677 112.489 48.4394C113.606 53.0673 113.908 61.0093 112.485 68.1903C111.775 71.7758 110.643 75.1217 109.007 77.7543ZM31.6083 32.4187C31.3637 32.4554 31.1771 32.4906 31.0434 32.5226C31.0135 32.6346 30.9805 32.7897 30.9463 32.9937C30.8603 33.5065 30.7811 34.2401 30.7109 35.1773C30.571 37.0465 30.472 39.6546 30.4139 42.771C30.298 48.9999 30.3464 57.2158 30.5507 65.5172C30.7552 73.8194 31.1153 82.1952 31.6216 88.7457C31.875 92.0228 32.1639 94.8296 32.4858 96.937C32.647 97.992 32.8142 98.856 32.985 99.5094C33.1658 100.201 33.3234 100.542 33.4103 100.654C33.5033 100.775 33.7152 100.946 34.1336 101.128C34.5417 101.305 35.0855 101.468 35.7666 101.608C37.1284 101.888 38.9434 102.061 41.1087 102.136C45.4332 102.284 51.0424 102.036 56.9741 101.527C69.4094 100.459 83.0954 98.259 89.1623 96.2483C90.0089 95.9678 90.6814 95.699 91.1705 95.4486C91.6946 95.1802 91.8879 94.9917 91.9291 94.9274C92.0168 94.7903 92.1594 94.4319 92.3285 93.7703C92.4899 93.1391 92.656 92.3137 92.8247 91.3143C93.1618 89.3174 93.5007 86.6746 93.8307 83.6006C94.4903 77.4557 95.1094 69.6308 95.605 61.8976C96.1005 54.165 96.4719 46.5338 96.6369 40.7775C96.7194 37.8977 96.75 35.4964 96.7193 33.7894C96.7039 32.9333 96.6734 32.2681 96.6287 31.8102C96.6199 31.7195 96.6108 31.6405 96.6018 31.5725C96.4967 31.5588 96.3698 31.5449 96.2198 31.5308C95.7013 31.4823 94.9652 31.4382 94.0345 31.3991C92.1763 31.3212 89.5841 31.2651 86.4961 31.2303C80.3223 31.1607 72.1916 31.1761 64.0431 31.269C55.8943 31.362 47.7342 31.5323 41.5008 31.7721C38.3826 31.8921 35.7552 32.0292 33.8551 32.1818C32.9032 32.2583 32.1472 32.3377 31.6083 32.4187ZM96.9086 31.625C96.9211 31.6287 96.9187 31.6289 96.9056 31.6242L96.9086 31.625ZM86.8865 42.5772C86.7379 42.2966 86.4917 42.1337 86.3251 42.0425C86.1397 41.9409 85.9252 41.8606 85.7053 41.794C85.2632 41.66 84.6875 41.5484 84.0193 41.4525C82.676 41.2598 80.8443 41.1152 78.7016 41.0105C74.4098 40.8006 68.7925 40.747 63.166 40.805C57.538 40.8629 51.887 41.0327 47.5247 41.2711C45.3451 41.3903 43.4777 41.5271 42.0925 41.6768C41.4015 41.7515 40.8169 41.8309 40.368 41.9155C40.1444 41.9577 39.9405 42.0037 39.7676 42.0553C39.6176 42.1001 39.4069 42.1724 39.2318 42.2997C38.9792 42.4834 38.8558 42.7535 38.7947 42.906C38.7205 43.0912 38.6623 43.3064 38.614 43.5315C38.5168 43.985 38.439 44.5799 38.3753 45.2785C38.2474 46.6817 38.1686 48.5965 38.1284 50.8398C38.048 55.3315 38.1217 61.2019 38.281 67.0681C38.4403 72.9357 38.6855 78.8093 38.9491 83.31C39.0808 85.5593 39.2175 87.4724 39.3509 88.8726C39.4175 89.5714 39.4842 90.1528 39.5506 90.5885C39.5837 90.8052 39.6184 90.9983 39.6559 91.1572C39.6847 91.2795 39.7387 91.4946 39.8504 91.6702C40.0134 91.9263 40.2592 92.0611 40.4098 92.1308C40.5828 92.2109 40.7793 92.2713 40.9776 92.3196C41.3767 92.4169 41.8918 92.4908 42.4861 92.5484C43.6814 92.6642 45.3053 92.7239 47.2029 92.7394C51.004 92.7706 55.9758 92.6252 60.9746 92.3768C65.9745 92.1284 71.0148 91.7762 74.9548 91.3924C76.9234 91.2006 78.6271 90.9999 79.9174 90.7988C80.5614 90.6984 81.1146 90.5961 81.5514 90.492C81.9499 90.397 82.3635 90.2767 82.6394 90.0993C82.868 89.9524 83.0194 89.7398 83.1173 89.5759C83.2238 89.3975 83.3175 89.1897 83.4018 88.9696C83.5706 88.5286 83.7321 87.9574 83.8879 87.2921C84.2005 85.9565 84.5113 84.1489 84.8108 82.0376C85.4108 77.8097 85.9755 72.2947 86.4205 66.7474C86.8656 61.1992 87.1921 55.6047 87.314 51.2159C87.3749 49.0231 87.3851 47.1202 87.3322 45.6704C87.3057 44.9467 87.2632 44.3224 87.2008 43.8252C87.1434 43.3674 87.0572 42.8997 86.8865 42.5772ZM70.9783 58.4917C70.9783 58.0422 71.3427 57.6777 71.7923 57.6777H74.7935C75.243 57.6777 75.6074 58.0422 75.6074 58.4917V61.3086C75.6074 61.7581 75.243 62.1225 74.7935 62.1225H71.7923C71.3427 62.1225 70.9783 61.7581 70.9783 61.3086V58.4917ZM48.3218 58.7209C47.8723 58.7209 47.5078 59.0853 47.5078 59.5348V62.3517C47.5078 62.8013 47.8723 63.1657 48.3218 63.1657H51.323C51.7725 63.1657 52.137 62.8013 52.137 62.3517V59.5348C52.137 59.0853 51.7725 58.7209 51.323 58.7209H48.3218ZM46.9118 72.723C46.9118 72.2734 47.2762 71.909 47.7257 71.909H50.7269C51.1765 71.909 51.5409 72.2734 51.5409 72.723V75.5399C51.5409 75.9894 51.1765 76.3538 50.7269 76.3538H47.7257C47.2762 76.3538 46.9118 75.9894 46.9118 75.5399V72.723ZM52.4198 78.0933C51.9703 78.0933 51.6058 78.4577 51.6058 78.9073V81.7242C51.6058 82.1737 51.9703 82.5381 52.4198 82.5381H55.421C55.8706 82.5381 56.235 82.1737 56.235 81.7242V78.9073C56.235 78.4577 55.8706 78.0933 55.421 78.0933H52.4198ZM57.7901 79.2798C57.7901 78.8303 58.1546 78.4659 58.6041 78.4659H61.6053C62.0548 78.4659 62.4193 78.8303 62.4193 79.2798V82.0967C62.4193 82.5463 62.0548 82.9107 61.6053 82.9107H58.6041C58.1546 82.9107 57.7901 82.5463 57.7901 82.0967V79.2798ZM65.0864 78.4658C64.6369 78.4658 64.2724 78.8303 64.2724 79.2798V82.0967C64.2724 82.5463 64.6369 82.9107 65.0864 82.9107H68.0876C68.5371 82.9107 68.9016 82.5463 68.9016 82.0967V79.2798C68.9016 78.8303 68.5371 78.4658 68.0876 78.4658H65.0864ZM69.9652 72.723C69.9652 72.2734 70.3296 71.909 70.7791 71.909H73.7803C74.2299 71.909 74.5943 72.2734 74.5943 72.723V75.5399C74.5943 75.9894 74.2299 76.3538 73.7803 76.3538H70.7791C70.3296 76.3538 69.9652 75.9894 69.9652 75.5399V72.723Z"
        fill="#F06648"
      />
    </svg>
