
      <svg
        width="138"
        height="138"
        viewBox="0 0 138 138"
        fill="none"
        xmlns="http://www.w3.org/2000/svg"
      >
        <circle cx="69" cy="69" r="66" stroke="#F06648" stroke-width="6" />
        <path
          fill-rule="evenodd"
          clip-rule="evenodd"
          d="M31.1389 73.555C38.7774 73.6014 46.6089 73.7039 46.6089 73.7039C47.5129 69.7207 50.7934 60.9832 56.6827 57.8994C70.2906 50.774 76.1513 46.3749 86.5166 34V36.3128L88.8413 34C86.9054 62.2256 92.4992 64.1963 121 55.5866L118.288 59.4413H121C117.499 63.7956 114.435 69.3256 111.307 74.972C103.733 88.6445 95.7807 103 80.3173 103C72.5115 103 66.5706 100.861 60.5123 98.6801C56.5074 97.2383 52.4513 95.7781 47.7712 94.905C37.2436 93.7413 23.9073 90.9009 17.5498 81.4134C17.3432 81.1051 17.1642 80.8379 17.009 80.6027C17.4956 80.7807 18.0143 80.8982 18.5573 80.9453L24.4756 81.4583C27.5044 81.7209 30.2546 79.6778 30.8778 76.7024L31.0833 75.7213C31.2374 74.9854 31.2496 74.254 31.1389 73.555ZM16.0001 77.5206C16.0079 76.2797 16.3913 74.0855 16.7749 73.7039C16.9447 73.535 22.6916 73.5141 29.0964 73.5439C29.2346 74.1062 29.2522 74.7081 29.1252 75.3146L28.9197 76.2958C28.5043 78.2794 26.6707 79.6414 24.6516 79.4664L18.7333 78.9533C17.6176 78.8566 16.6559 78.3136 16.0001 77.5206ZM51.6033 78.2811L52.1598 77.0948C54.2196 72.7035 61.4135 64.4321 74.1704 64.7661C86.7816 65.0963 92.7818 72.3901 94.2173 76.516L94.4834 77.2805L94.1427 78.0148C92.3459 81.888 86.0756 89.1955 74.893 89.1955C71.9273 89.1955 69.1468 88.715 66.6171 87.9544C59.7785 85.8984 54.6677 81.7654 52.4687 79.265L51.6033 78.2811Z"
          fill="#F06648"
        />
        <mask
          id="mask0_115_244"
          maskUnits="userSpaceOnUse"
          x="53"
          y="66"
          width="40"
          height="22"
        >
          <path
            d="M74.118 66.7654C62.3394 66.457 55.7785 74.0894 53.9704 77.9442C55.9538 80.1994 60.7553 84.1037 67.1928 86.0391C69.5582 86.7502 72.1444 87.1955 74.8929 87.1955C85.1217 87.1955 90.7785 80.514 92.3283 77.1732C91.166 73.8324 85.8966 67.0738 74.118 66.7654Z"
            fill="#C4C4C4"
          />
        </mask>
        <g mask="url(#mask0_115_244)">
          <ellipse
            cx="61.7195"
            cy="74.0894"
            rx="13.5609"
            ry="13.4916"
            fill="#F06648"
          />
        </g>
      </svg>
